<svg width="28" height="28" viewBox="0 0 28 28" fill="none" xmlns="http://www.w3.org/2000/svg">
<path d="M14.0812 0.000111416C19.8961 0.0430733 25.0814 3.66524 27.1146 9.10542C29.1479 14.5462 27.6061 20.6753 23.2396 24.511C18.8737 28.3462 12.5901 29.0925 7.44504 26.3872L7.38091 26.3647C7.3709 26.3589 7.36929 26.3539 7.36714 26.3472L6.4116 25.8065C6.21698 25.7268 6.00132 25.7139 5.86965 25.7472C4.87635 26.1043 3.86117 26.3976 2.83034 26.6253L2.64139 26.648C1.50662 26.6732 0.934858 25.9369 0.934858 24.8653L0.962217 24.6357C1.21991 23.57 1.54286 22.5211 1.91042 21.5497C1.96743 21.3658 1.94845 21.1669 1.85006 20.9825L1.59271 20.4808C-0.681964 16.1317 -0.510425 10.911 2.04483 6.72014C4.59976 2.52981 9.16489 -0.0194187 14.0812 0.000111416ZM14.0677 1.95248L13.6745 1.95864C9.59692 2.0753 5.84273 4.24369 3.71274 7.73709C1.51435 11.3427 1.36678 15.8338 3.32727 19.5823L3.58057 20.0763C3.91745 20.7067 3.98794 21.4456 3.75745 22.1831C3.39925 23.1345 3.09987 24.1069 2.86099 25.0949L2.9932 24.5798L3.54582 24.4358C3.73552 24.3835 3.92568 24.3284 4.11683 24.2705L4.6938 24.0877L5.27987 23.8864C5.89896 23.7159 6.55718 23.7554 7.2056 24.0226C7.34171 24.0882 7.51059 24.1793 7.72348 24.2997L8.31473 24.639C8.32474 24.6417 8.33351 24.6441 8.34021 24.6459L8.32294 24.6436L8.72577 24.8455C12.9615 26.8907 18.0077 26.2892 21.6421 23.3052L21.9504 23.0434C25.7076 19.7429 27.034 14.47 25.2847 9.78928C23.5352 5.10806 19.0723 1.99054 14.0677 1.95248Z" fill="currentColor"/>
</svg>
