<svg width="28" height="28" viewBox="0 0 28 28" fill="none" xmlns="http://www.w3.org/2000/svg">
<path d="M16.4767 13.9969L27.4826 2.99077C27.8091 2.66698 27.9949 2.22762 27.9999 1.76781C28.0049 1.30801 27.8285 0.864742 27.5091 0.533977C27.1896 0.203212 26.7528 0.0115593 26.2931 0.000505941C25.8333 -0.0105474 25.3878 0.159888 25.0528 0.474918C25.0379 0.488909 25.0239 0.503338 25.0095 0.517767L14.0032 11.5234L2.99727 0.517767C2.66808 0.195809 2.22519 0.0166591 1.76473 0.019195C1.30427 0.021731 0.863384 0.205749 0.537755 0.531313C0.212126 0.856877 0.0280261 1.29772 0.0254087 1.75817C0.0227913 2.21862 0.201867 2.66153 0.523774 2.99077L11.5301 13.9969L0.523774 25.003C0.193138 25.3275 0.00479575 25.77 9.03209e-05 26.2333C-0.00461511 26.6966 0.174701 27.1428 0.498676 27.474C0.822652 27.8052 1.26481 27.9943 1.7281 27.9999C2.19138 28.0054 2.63793 27.8269 2.96972 27.5035L2.99727 27.476L14.0032 16.4703L25.0095 27.476C25.351 27.8174 25.7987 27.9884 26.246 27.9884C26.6933 27.9884 27.1415 27.8174 27.4826 27.476C27.8105 27.148 27.9947 26.7032 27.9947 26.2395C27.9947 25.7757 27.8105 25.3309 27.4826 25.003L16.4767 13.9969Z" fill="currentColor"/>
</svg>
