<svg width="28" height="28" viewBox="0 0 28 28" fill="none" xmlns="http://www.w3.org/2000/svg">
<path d="M26.9756 25.8736C27.5414 25.8736 28 26.3496 28 26.9368C28 27.475 27.6146 27.9199 27.1146 27.9903L26.9756 28H16.2882C15.7225 28 15.2638 27.524 15.2638 26.9368C15.2638 26.3985 15.6492 25.9537 16.1492 25.8833L16.2882 25.8736H26.9756ZM16.581 1.50972C18.5205 -0.503241 21.6662 -0.503241 23.6056 1.50972L25.619 3.59947C27.5585 5.61244 27.5585 8.87739 25.619 10.8904L10.4854 26.5977C9.62003 27.4958 8.44677 27.9998 7.22216 27.9998H1.0244C0.448645 27.9998 -0.0140237 27.5075 0.000324954 26.9101L0.156227 20.4193C0.187223 19.1926 0.670864 18.023 1.50682 17.1553L16.581 1.50972ZM15.4093 5.73012L2.95552 18.659C2.49085 19.1412 2.22155 19.7925 2.20434 20.4737L2.07426 25.8726L7.22216 25.8734C7.8279 25.8734 8.41043 25.6521 8.87021 25.2523L9.03668 25.0941L21.5522 12.1042L15.4093 5.73012ZM22.1569 3.01335C21.0176 1.83081 19.1691 1.83081 18.0297 3.01335L16.8591 4.22635L23.0004 10.6005L24.1703 9.38674C25.2464 8.26989 25.3062 6.49654 24.3497 5.30675L24.1703 5.1031L22.1569 3.01335Z" fill="currentColor"/>
</svg>
