<svg width="28" height="28" viewBox="0 0 28 28" fill="none" xmlns="http://www.w3.org/2000/svg">
<path d="M13.9541 27C13.3097 27.0004 12.6747 26.8374 12.1019 26.5245C8.46341 24.5338 0 19.0292 0 10.93C0 6.00608 3.52333 2 7.85402 2C10.2332 2 12.4646 3.23149 13.9423 5.29101C15.42 3.23149 17.6514 2 20.0306 2C24.3613 2 27.8846 6.00608 27.8846 10.9302C27.8846 19.1276 19.4221 24.575 15.7835 26.5365C15.2167 26.8416 14.5899 27.0004 13.9541 27ZM7.85402 3.81836C4.46947 3.81836 1.71598 7.00868 1.71598 10.93C1.71598 13.9673 3.15482 16.9613 5.9924 19.8286C8.44625 22.3084 11.3668 24.0761 12.8893 24.9089C13.2164 25.0875 13.5788 25.1812 13.9467 25.1824C14.3146 25.1837 14.6775 25.0923 15.0056 24.9159C16.5272 24.0956 19.4459 22.3502 21.8971 19.8775C24.7315 17.0179 26.1686 14.0076 26.1686 10.93C26.1686 7.00868 23.4151 3.81814 20.0306 3.81814C17.8374 3.81814 15.7956 5.19146 14.7023 7.40259C14.6296 7.54954 14.5204 7.67262 14.3864 7.75849C14.2525 7.84436 14.0989 7.88976 13.9423 7.88976C13.7857 7.88976 13.6322 7.84436 13.4982 7.75849C13.3642 7.67262 13.255 7.54954 13.1823 7.40259C12.0888 5.19168 10.047 3.81836 7.85402 3.81836Z" fill="currentColor"/>
</svg>
