<svg width="28" height="28" viewBox="0 0 28 28" fill="none" xmlns="http://www.w3.org/2000/svg">
<path d="M20.0601 0C24.8247 0 28 3.40041 28 8.27971V19.7189C28 24.5984 24.8245 28 20.0601 28H7.92585C3.16367 28 0 24.6011 0 19.7189V8.27971C0 3.40282 3.17291 0 7.92585 0H20.0601ZM20.0601 2.10537H7.92585C4.36892 2.10537 2.10421 4.53419 2.10421 8.27971V19.7189C2.10421 23.4705 4.36057 25.8946 7.92585 25.8946H20.0601C23.6291 25.8946 25.8958 23.4666 25.8958 19.7189V8.27971C25.8958 4.53241 23.6294 2.10537 20.0601 2.10537ZM21.0572 14.2569L21.2397 14.4321L24.1519 17.4385C24.5563 17.856 24.5459 18.5225 24.1286 18.9271C23.7493 19.2949 23.1644 19.3197 22.7573 19.0075L22.6409 18.9038L19.7288 15.8975C19.2215 15.3739 18.3967 15.369 17.8818 15.8577L17.7688 15.9792L14.6425 19.7837C13.5366 21.1315 11.5469 21.2759 10.2595 20.1465L10.0885 19.9845L8.84081 18.7107C8.51307 18.3704 7.99041 18.3382 7.62644 18.6128L7.51148 18.7157L5.36659 20.9797C4.96685 21.4016 4.30093 21.4194 3.87922 21.0195C3.49585 20.6559 3.44629 20.0721 3.74078 19.652L3.83946 19.5313L5.9839 17.2678C7.11283 16.0747 8.97193 16.0111 10.1745 17.0753L10.3498 17.2434L11.5912 18.5108C11.9541 18.8812 12.5357 18.8906 12.9107 18.5574L13.0166 18.4472L16.1432 14.6424C17.3854 13.1295 19.6223 12.9764 21.0572 14.2569ZM9.2017 6.49773C11.1407 6.49773 12.7143 8.07224 12.7143 10.0123C12.7143 11.9523 11.1407 13.5269 9.2017 13.5269C7.26281 13.5269 5.69048 11.9524 5.69048 10.0123C5.69048 8.07216 7.26281 6.49773 9.2017 6.49773ZM9.2017 8.6031C8.4253 8.6031 7.79469 9.23456 7.79469 10.0123C7.79469 10.79 8.4253 11.4215 9.2017 11.4215C9.97856 11.4215 10.6101 10.7896 10.6101 10.0123C10.6101 9.23501 9.97856 8.6031 9.2017 8.6031Z" fill="currentColor"/>
</svg>
