<svg width="28" height="28" viewBox="0 0 28 28" fill="none" xmlns="http://www.w3.org/2000/svg">
<path d="M19.2498 0C23.337 0 25.7809 2.688 25.8192 7.1848V20.7074C25.8192 25.2672 23.369 28 19.2498 28H9.37071C8.84382 28 8.3438 27.9552 7.87318 27.867L7.59439 27.8096C4.56225 27.1194 2.8 24.577 2.8 20.7074V7.2926C2.8 6.825 2.82558 6.377 2.87673 5.9486C3.32305 2.1896 5.68252 0 9.37071 0H19.2498ZM19.2383 2.0398H9.37071C6.22986 2.0398 4.6377 3.808 4.6377 7.2926V20.7074C4.6377 24.192 6.22986 25.9602 9.37071 25.9602H19.2383C22.3779 25.9602 23.9598 24.192 23.9598 20.7074V7.2926C23.9598 3.808 22.3779 2.0398 19.2383 2.0398ZM18.9045 18.914C19.4084 18.914 19.8163 19.3676 19.8163 19.9276C19.8163 20.4876 19.4084 20.9412 18.9045 20.9412H9.68275C9.17888 20.9412 8.76965 20.4876 8.76965 19.9276C8.76965 19.3676 9.17888 18.914 9.68275 18.914H18.9045ZM18.9045 12.9794C19.2562 12.9374 19.6002 13.1222 19.7882 13.454C19.9762 13.7886 19.9762 14.2114 19.7882 14.546C19.6002 14.8778 19.2562 15.0626 18.9045 15.0206H9.68275C9.21469 14.9618 8.86045 14.5236 8.86045 14C8.86045 13.4764 9.21469 13.0368 9.68275 12.9794H18.9045ZM13.2021 7.0588C13.6702 7.1162 14.0244 7.5558 14.0244 8.0794C14.0244 8.6016 13.6702 9.0412 13.2021 9.0986H9.69426C9.22492 9.0412 8.87068 8.6016 8.87068 8.0794C8.87068 7.5558 9.22492 7.1162 9.69426 7.0588H13.2021Z" fill="currentColor"/>
</svg>
