<svg width="28" height="28" viewBox="0 0 28 28" fill="none" xmlns="http://www.w3.org/2000/svg">
<path fill-rule="evenodd" clip-rule="evenodd" d="M12.6435 16.9692L17.8948 25.4886C18.1246 25.8619 18.4836 25.8576 18.6286 25.8375C18.7736 25.8174 19.1226 25.7284 19.2489 25.3048L25.8155 3.12678C25.9304 2.73477 25.7193 2.46769 25.6246 2.37292C25.5327 2.27815 25.2699 2.07568 24.8894 2.18337L2.69521 8.6824C2.27448 8.80589 2.18257 9.15913 2.16247 9.30416C2.14237 9.45206 2.13662 9.81823 2.50854 10.0523L11.1257 15.4413L18.7392 7.74761C19.157 7.32545 19.8391 7.32114 20.2627 7.739C20.6863 8.15685 20.6892 8.84036 20.2713 9.26252L12.6435 16.9692ZM18.5166 28C17.5172 28 16.601 27.4917 16.0611 26.6186L10.4939 17.5852L1.36695 11.8774C0.383321 11.2613 -0.130751 10.1643 0.0286401 9.01123C0.186595 7.85818 0.977807 6.94205 2.08924 6.6161L24.2834 0.117068C25.3043 -0.181606 26.3985 0.101273 27.151 0.850829C27.9034 1.60757 28.1834 2.71323 27.879 3.73849L21.3124 25.915C20.9836 27.0307 20.0645 27.8191 18.9143 27.9727C18.7794 27.99 18.6487 28 18.5166 28Z" fill="currentColor"/>
</svg>
