<svg width="28" height="28" viewBox="0 0 28 28" fill="none" xmlns="http://www.w3.org/2000/svg">
<g clip-path="url(#clip0_115_6063)">
<path d="M27.3925 12.7446C27.6619 12.4839 27.8525 12.1526 27.9423 11.7885C28.0322 11.4245 28.0176 11.0426 27.9005 10.6864C27.7859 10.3292 27.5731 10.0116 27.2863 9.7698C26.9995 9.52803 26.6504 9.37197 26.279 9.3195L19.4993 8.3344C19.3571 8.31374 19.2221 8.25879 19.1058 8.1743C18.9896 8.08981 18.8957 7.97831 18.8321 7.84942L15.8011 1.70612C15.6364 1.36925 15.3801 1.0856 15.0616 0.887678C14.7431 0.689751 14.3753 0.585553 14.0003 0.587021C13.6254 0.585658 13.2577 0.689906 12.9393 0.887827C12.6209 1.08575 12.3646 1.36934 12.1999 1.70612L9.16838 7.84942C9.03942 8.11125 8.78936 8.29235 8.50062 8.3344L1.72096 9.32006C1.34965 9.37239 1.00062 9.52835 0.71392 9.77003C0.427216 10.0117 0.214457 10.3293 0.100057 10.6864C-0.0171338 11.0426 -0.0316405 11.4245 0.0581983 11.7885C0.148037 12.1526 0.338589 12.4839 0.608027 12.7446L5.51335 17.5261C5.72248 17.7302 5.81836 18.0239 5.76902 18.311L4.61123 25.0632C4.54644 25.4324 4.58697 25.8124 4.72817 26.1597C4.86938 26.507 5.10555 26.8074 5.40963 27.0267C5.71194 27.2488 6.07084 27.381 6.44499 27.4081C6.81915 27.4351 7.19334 27.356 7.52449 27.1797L13.5876 23.9917C13.7149 23.9249 13.8565 23.89 14.0003 23.89C14.144 23.89 14.2856 23.9249 14.4129 23.9917L20.4766 27.1797C20.808 27.355 21.182 27.4335 21.556 27.4064C21.9299 27.3794 22.2887 27.2478 22.5914 27.0267C22.8955 26.8074 23.1317 26.507 23.2729 26.1597C23.4141 25.8124 23.4546 25.4324 23.3898 25.0632L22.2315 18.3116C22.2073 18.1698 22.2179 18.0243 22.2624 17.8875C22.307 17.7508 22.3841 17.6269 22.4872 17.5266L27.3925 12.7446ZM21.127 18.5011L22.2848 25.2527C22.3147 25.4158 22.2974 25.5842 22.2349 25.7378C22.1725 25.8915 22.0674 26.0241 21.9321 26.1201C21.799 26.2188 21.6405 26.2775 21.4752 26.2896C21.3099 26.3016 21.1446 26.2663 20.9986 26.1879L14.9349 22.9994C14.6465 22.8482 14.3258 22.7692 14.0002 22.7693C13.6746 22.7694 13.3539 22.8486 13.0656 22.9999L7.00306 26.1879C6.85695 26.2663 6.69156 26.3015 6.52618 26.2895C6.36079 26.2775 6.20223 26.2187 6.06898 26.1201C5.93374 26.024 5.82871 25.8914 5.76624 25.7378C5.70377 25.5841 5.68645 25.4158 5.71632 25.2527L6.87411 18.5011C6.92916 18.1802 6.90536 17.8508 6.80475 17.5411C6.70415 17.2315 6.52976 16.951 6.29661 16.7237L1.39073 11.9418C1.2705 11.8275 1.1855 11.6812 1.14576 11.5201C1.10602 11.3591 1.1132 11.19 1.16646 11.0329C1.27298 10.7044 1.54043 10.479 1.88188 10.4291L8.66097 9.44397C8.98326 9.39745 9.28938 9.27313 9.55284 9.08176C9.81631 8.89039 10.0292 8.63772 10.1731 8.34561L13.2047 2.20232C13.2763 2.05275 13.3892 1.92677 13.5301 1.83926C13.6709 1.75174 13.8339 1.70632 13.9997 1.70837C14.3451 1.70837 14.6422 1.89283 14.7953 2.20232L17.8269 8.34561C17.9707 8.63768 18.1835 8.89032 18.4468 9.0817C18.7102 9.27307 19.0162 9.39741 19.3384 9.44397L26.1181 10.4291C26.2825 10.4511 26.4372 10.5196 26.5639 10.6266C26.6907 10.7336 26.7842 10.8745 26.8335 11.0329C26.94 11.3609 26.8565 11.7007 26.6092 11.9418L21.7039 16.7232C21.4707 16.9505 21.2964 17.2311 21.1959 17.5409C21.0953 17.8506 21.0717 18.1802 21.127 18.5011Z" fill="currentColor"/>
</g>
<defs>
<clipPath id="clip0_115_6063">
<rect width="28" height="28" fill="white"/>
</clipPath>
</defs>
</svg>
