<svg width="24" height="24" viewBox="0 0 24 24" fill="none" xmlns="http://www.w3.org/2000/svg">
<path d="M11.556 5.73611C11.244 5.73611 10.992 5.98811 10.992 6.30011V11.6281L8.83199 14.1481C8.73599 14.2561 8.68799 14.4121 8.69999 14.5561C8.71199 14.7001 8.78399 14.8441 8.89199 14.9401L9.57599 15.5281C9.68399 15.6241 9.81599 15.6601 9.93599 15.6601C10.092 15.6601 10.248 15.5881 10.368 15.4681L12.888 12.5521C12.972 12.4441 13.02 12.3241 13.02 12.1801V6.30011C13.02 5.98811 12.768 5.73611 12.456 5.73611H11.556V5.73611ZM23.46 15.1561C23.364 14.9641 23.172 14.8441 22.956 14.8441H18.672V1.08011C18.672 0.768113 18.42 0.516113 18.108 0.516113H17.208C16.896 0.516113 16.644 0.768113 16.644 1.08011V21.3001C16.644 21.3361 16.644 21.3721 16.656 21.4081V22.9321C16.656 23.1721 16.812 23.3881 17.04 23.4721C17.1 23.4961 17.16 23.4961 17.22 23.4961C17.388 23.4961 17.556 23.4121 17.664 23.2801L23.4 15.7561C23.532 15.5881 23.556 15.3481 23.46 15.1561V15.1561Z" fill="currentColor"/>
<path d="M15.528 1.03198C14.364 0.671981 13.176 0.47998 12 0.47998C5.63998 0.47998 0.47998 5.65198 0.47998 12C0.47998 18.348 5.63998 23.52 12 23.52C13.188 23.52 14.376 23.328 15.528 22.968C15.756 22.896 15.924 22.68 15.924 22.428V21.516C15.924 21.336 15.84 21.156 15.684 21.06C15.54 20.952 15.348 20.928 15.168 20.988C14.148 21.348 13.08 21.528 12 21.528C6.75598 21.528 2.48398 17.256 2.48398 12.012C2.48398 6.76798 6.75598 2.49598 12 2.49598C13.092 2.49598 14.16 2.67598 15.168 3.03598C15.336 3.09598 15.528 3.07198 15.684 2.96398C15.828 2.85598 15.924 2.68798 15.924 2.50798V1.58398C15.924 1.33198 15.756 1.11598 15.528 1.03198V1.03198Z" fill="currentColor"/>
</svg>
