<svg width="24" height="24" viewBox="0 0 24 24" fill="none" xmlns="http://www.w3.org/2000/svg">
<path d="M12.0288 15.1021L12.4788 15.1038C19.1649 15.1544 22.964 16.3525 22.964 19.5638C22.964 22.6994 19.3462 23.8953 12.9221 23.9934L12.0288 24C5.06338 24 1.09351 22.821 1.09351 19.5383C1.09351 16.2593 5.04584 15.1021 12.0288 15.1021ZM12.0288 16.9207L11.5613 16.9227C6.02646 16.969 3.17588 17.8493 3.17588 19.5383C3.17588 21.2844 6.19607 22.1814 12.0288 22.1814C17.8688 22.1814 20.8816 21.299 20.8816 19.5638C20.8816 17.8177 17.8614 16.9207 12.0288 16.9207ZM12.0288 0C16.1244 0 19.4115 2.87073 19.4115 6.44759C19.4115 10.0236 16.1239 12.8952 12.0288 12.8952C7.93451 12.8952 4.64604 10.0232 4.64604 6.44759C4.64604 2.87111 7.93406 0 12.0288 0ZM12.0288 1.81861C9.08406 1.81861 6.72842 3.87557 6.72842 6.44759C6.72842 9.01885 9.08457 11.0766 12.0288 11.0766C14.9738 11.0766 17.3291 9.0193 17.3291 6.44759C17.3291 3.87512 14.9743 1.81861 12.0288 1.81861Z" 6fill="currentColor"/>
</svg>
