<svg width="23" height="23" viewBox="0 0 23 23" fill="none" xmlns="http://www.w3.org/2000/svg">
<path d="M16.5126 0C20.4126 0 23 2.77915 23 6.77714V16.2229C23 20.2209 20.4126 23 16.5126 23H6.48738C2.58741 23 0 20.2209 0 16.2229V6.77714C0 2.78289 2.59424 0 6.48738 0H16.5126ZM16.5126 1.60465H6.48738C3.50661 1.60465 1.60465 3.64492 1.60465 6.77714V16.2229C1.60465 19.3592 3.50028 21.3953 6.48738 21.3953H16.5126C19.4997 21.3953 21.3953 19.3592 21.3953 16.2229V6.77714C21.3953 3.64076 19.4997 1.60465 16.5126 1.60465ZM11.5 6.76875C11.9062 6.76875 12.2419 7.07059 12.295 7.4622L12.3023 7.57107L12.3015 10.687L15.4225 10.6875C15.8656 10.6875 16.2248 11.0467 16.2248 11.4898C16.2248 11.896 15.923 12.2317 15.5314 12.2848L15.4225 12.2921L12.3015 12.2912L12.3023 15.4086C12.3023 15.8517 11.9431 16.2109 11.5 16.2109C11.0938 16.2109 10.7581 15.9091 10.705 15.5174L10.6977 15.4086L10.6973 12.2912L7.57752 12.2921C7.13441 12.2921 6.77519 11.9329 6.77519 11.4898C6.77519 11.0836 7.07703 10.7479 7.46865 10.6948L7.57752 10.6875L10.6973 10.687L10.6977 7.57107C10.6977 7.12796 11.0569 6.76875 11.5 6.76875Z" fill="#666666"/>
</svg>
