<svg width="28" height="28" viewBox="0 0 28 28" fill="none" xmlns="http://www.w3.org/2000/svg">
<g clip-path="url(#clip0_134_670)">
<path d="M13.9998 28C21.7316 28 28 21.7324 28 14C28 6.26848 21.7316 0 13.9998 0C6.26797 0 1.22766e-10 6.26848 1.22766e-10 14C-3.20311e-05 21.7324 6.26794 28 13.9998 28Z" fill="#537BBC"/>
<path d="M10 11.2911H11.7141V9.68349C11.7141 8.97465 11.7326 7.88144 12.2662 7.2044C12.8283 6.4874 13.5999 6 14.927 6C17.0894 6 18 6.29765 18 6.29765L17.5716 8.74822C17.5716 8.74822 16.8571 8.54889 16.1907 8.54889C15.5239 8.54889 14.927 8.77944 14.927 9.42251V11.2911H17.6606L17.4698 13.6847H14.927V22H11.7141V13.6847H10V11.2911Z" fill="white"/>
</g>
<defs>
<clipPath id="clip0_134_670">
<rect width="28" height="28" fill="white"/>
</clipPath>
</defs>
</svg>
