<svg width="28" height="28" viewBox="0 0 28 28" fill="none" xmlns="http://www.w3.org/2000/svg">
<g clip-path="url(#clip0_134_665)">
<path d="M5.48937 17.1099L5.05772 20.0408L1.00003 20.6099C-0.0292788 18.7974 2.39994e-05 16.2234 2.39994e-05 14.0199C2.39994e-05 11.8889 0.546038 9.87932 1.51355 8.10986L4.58057 8.64355L5.92378 11.5373C5.64247 12.3154 5.48937 13.1508 5.48937 14.0199C5.48967 14.9629 5.15917 16.2759 5.48937 17.1099Z" fill="#FBBB00"/>
<path d="M27.75 12.1099C27.9143 12.9234 28 13.7634 28 14.6223C28 15.5851 27.8922 16.5243 27.6871 17.4303C26.9904 20.513 25.1694 23.2051 22.647 25.1099L22.6463 25.1093L18.5619 24.9135L17.984 21.5232C19.6576 20.6009 20.9657 19.158 21.6547 17.4303H14V12.1099H27.75Z" fill="#518EF8"/>
<path d="M22.9994 25.049L23 25.0496C20.4981 26.9644 17.3199 28.1099 13.8598 28.1099C8.29988 28.1099 3.46588 25.1513 1 20.7972L5.73136 17.1099C6.9643 20.2427 10.1386 22.4728 13.8598 22.4728C15.4594 22.4728 16.9577 22.0611 18.2436 21.3425L22.9994 25.049Z" fill="#28B446"/>
<path d="M23 3.24839L18.3311 6.86447C17.0174 6.08772 15.4645 5.63892 13.8008 5.63892C10.044 5.63892 6.85198 7.92682 5.69576 11.1099L1.5 8.10986C3.89866 3.73496 8.23081 0.109863 13.8011 0.109863C17.2975 0.109554 20.5039 1.28813 23 3.24839Z" fill="#F14336"/>
</g>
<defs>
<clipPath id="clip0_134_665">
<rect width="28" height="28" fill="white"/>
</clipPath>
</defs>
</svg>
