<svg width="24" height="24" viewBox="0 0 24 24" fill="none" xmlns="http://www.w3.org/2000/svg">
<path d="M11.1224 0.802197C12.4586 2.95673 12.1112 7.00364 10.3308 7.65268C8.97165 8.09682 7.93829 6.95274 7.93829 4.70403C7.94262 4.60345 7.91703 4.50384 7.86476 4.4178C7.81248 4.33177 7.73587 4.26316 7.64461 4.22066C7.55334 4.17816 7.45153 4.16368 7.35203 4.17904C7.25254 4.19441 7.15983 4.23893 7.08564 4.30698C3.45869 7.50887 2.04609 9.67741 1.15781 12.9747C0.860388 14.0709 0.782626 15.2151 0.92899 16.3415C1.07535 17.4678 1.44296 18.5541 2.01066 19.5379C2.57836 20.5217 3.33495 21.3835 4.23692 22.0738C5.13889 22.7642 6.16844 23.2693 7.26635 23.5603C7.89688 23.7787 8.55005 23.9251 9.21345 23.9969C9.33205 24.0099 9.45155 23.9822 9.55232 23.9183C9.65308 23.8544 9.72911 23.7581 9.7679 23.6453C9.8067 23.5325 9.80595 23.4098 9.76578 23.2975C9.72561 23.1851 9.64841 23.0898 9.54687 23.0271C9.06887 22.75 8.67735 22.3454 8.41607 21.8586C8.15479 21.3718 8.03403 20.8218 8.06731 20.2703C8.10058 19.7188 8.28657 19.1874 8.60449 18.7355C8.9224 18.2836 9.35972 17.9291 9.86757 17.7114L10.2952 17.5625C11.1929 17.299 11.9848 16.7595 12.5587 16.0205C13.1325 15.2815 13.459 14.3806 13.492 13.4456V13.3387L13.6014 13.4074C14.432 13.9272 15.1257 14.6387 15.6242 15.4822C16.1227 16.3257 16.4114 17.2766 16.4661 18.2548C16.4587 19.206 16.2067 20.1393 15.7345 20.9651C15.2622 21.7908 14.5855 22.4812 13.7694 22.9699C13.6632 23.0299 13.5812 23.125 13.5375 23.2389C13.4937 23.3527 13.491 23.4783 13.5296 23.594C13.5683 23.7097 13.646 23.8083 13.7494 23.873C13.8528 23.9377 13.9755 23.9644 14.0965 23.9485C14.3714 23.9044 14.6416 23.8526 14.9071 23.7932C17.0867 23.4618 19.0665 22.3357 20.4655 20.6317C21.8644 18.9278 22.5835 16.7666 22.4843 14.5642C22.4843 8.43661 19.0393 3.25071 11.7625 0.0399015C11.66 -0.00267609 11.5465 -0.0114437 11.4387 0.0148732C11.3308 0.0411901 11.2342 0.10122 11.1628 0.186235C11.0914 0.27125 11.049 0.37682 11.0417 0.487596C11.0345 0.598371 11.0627 0.708579 11.1224 0.802197V0.802197Z" fill="#666666"/>
</svg>
